<svg xmlns="http://www.w3.org/2000/svg" xmlns:xlink="http://www.w3.org/1999/xlink" width="512" height="512" preserveAspectRatio="xMidYMid meet" version="1.1" viewBox="0 0 640 640"><defs><path id="b63MUKeRy" d="M0 0L640 0L640 640L0 640L0 0Z"/><path id="a39jYLbPwB" d="M491.24 271.76C491.24 366.27 414.51 443 320 443C225.49 443 148.76 366.27 148.76 271.76C148.76 177.25 225.49 100.52 320 100.52C414.51 100.52 491.24 177.25 491.24 271.76Z"/><path id="daNuq7qUIK" d="M355.68 473.02C348.55 473.02 291.45 473.02 284.32 473.02C222.46 473.02 164.18 502.03 120.22 554.71C76.48 607.13 52.39 676.33 52.39 749.56C52.39 761.19 60.37 770.62 70.23 770.62C120.18 770.62 519.82 770.62 569.77 770.62C579.63 770.62 587.61 761.19 587.61 749.56C587.61 676.33 563.52 607.13 519.78 554.71C475.82 502.03 417.54 473.02 355.68 473.02Z"/></defs><g><g><g><use fill="#f6f6f6" fill-opacity="1" opacity="1" xlink:href="#b63MUKeRy"/></g><g><use fill="#252f3f" fill-opacity="1" opacity="1" xlink:href="#a39jYLbPwB"/></g><g><use fill="#252f3f" fill-opacity="1" opacity="1" xlink:href="#daNuq7qUIK"/><g><use fill-opacity="0" stroke="#000" stroke-opacity="0" stroke-width="1" opacity="1" xlink:href="#daNuq7qUIK"/></g></g></g></g></svg>